<svg width="26" height="26" viewBox="0 0 26 26" fill="none" xmlns="http://www.w3.org/2000/svg">
<path d="M13 13V1" stroke="black" stroke-width="2" stroke-linecap="round" stroke-linejoin="round"/>
<path d="M23.3923 7L2.60767 19" stroke="black" stroke-width="2" stroke-linecap="round" stroke-linejoin="round"/>
<path d="M1.20011 15.1938C0.680547 12.3821 1.18043 9.47723 2.60999 7.00092C4.03954 4.5246 6.30511 2.63905 8.99984 1.68289V10.6907L1.20011 15.1938Z" stroke="black" stroke-width="2" stroke-linecap="round" stroke-linejoin="round"/>
<path d="M13 1C15.1024 1.00039 17.1679 1.55313 18.9895 2.60288C20.811 3.65263 22.3249 5.16254 23.3793 6.9814C24.4338 8.80027 24.9919 10.8643 24.9978 12.9667C25.0036 15.0691 24.457 17.1361 23.4126 18.9608C22.3683 20.7855 20.8629 22.3038 19.0471 23.3637C17.2314 24.4235 15.1691 24.9877 13.0667 24.9998C10.9643 25.0119 8.89564 24.4714 7.06786 23.4324C5.24008 22.3935 3.71733 20.8926 2.6521 19.08" stroke="black" stroke-width="2" stroke-linecap="round" stroke-linejoin="round"/>
</svg>
